<?xml version="1.0" encoding="iso-8859-1"?>
<!-- Generator: Adobe Illustrator 17.0.0, SVG Export Plug-In . SVG Version: 6.00 Build 0)  -->
<!DOCTYPE svg PUBLIC "-//W3C//DTD SVG 1.1//EN" "http://www.w3.org/Graphics/SVG/1.1/DTD/svg11.dtd">
<svg version="1.1" xmlns="http://www.w3.org/2000/svg" xmlns:xlink="http://www.w3.org/1999/xlink" x="0px" y="0px" width="512px"
	 height="512px" viewBox="0 0 512 512" style="enable-background:new 0 0 512 512;" xml:space="preserve">
<g id="Layer_2">
	<g>
		<path style="fill:#659AD2;" d="M62,163.388c0-11,7.864-24.498,17.392-29.995l159.6-92.064c9.528-5.497,25.136-5.497,34.664,0
			l159.794,92.064C442.977,138.89,451,152.388,451,163.388v184.109c0,11-8.015,24.498-17.543,29.995l-159.675,92.064
			c-9.528,5.497-25.174,5.497-34.702,0L79.419,377.491C69.891,371.994,62,358.496,62,347.496V163.388z"/>
	</g>
</g>
<g id="Layer_1">
	<g>
		<defs>
			<polyline id="SVGID_1_" points="59.439,367.721 451,143.388 451,480 59,480 			"/>
		</defs>
		<clipPath id="SVGID_2_">
			<use xlink:href="#SVGID_1_"  style="overflow:visible;"/>
		</clipPath>
		<g style="clip-path:url(#SVGID_2_);">
			<path style="fill:#004482;" d="M62,163.388c0-11,7.864-24.498,17.392-29.995l159.6-92.064c9.528-5.497,25.136-5.497,34.664,0
				l159.794,92.064C442.977,138.89,451,152.388,451,163.388v184.109c0,11-8.015,24.498-17.543,29.995l-159.675,92.064
				c-9.528,5.497-25.174,5.497-34.702,0L79.419,377.491C69.891,371.994,62,358.496,62,347.496V163.388z"/>
		</g>
	</g>
</g>
<g id="Layer_3">
	<g>
		<defs>
			<polygon id="SVGID_3_" points="256.788,255.723 451,143.388 451,368.058 			"/>
		</defs>
		<clipPath id="SVGID_4_">
			<use xlink:href="#SVGID_3_"  style="overflow:visible;"/>
		</clipPath>
		<g style="clip-path:url(#SVGID_4_);">
			<path style="fill:#00599C;" d="M62,163.388c0-11,7.864-24.498,17.392-29.995l159.6-92.064c9.528-5.497,25.136-5.497,34.664,0
				l159.794,92.064C442.977,138.89,451,152.388,451,163.388v184.109c0,11-8.015,24.498-17.543,29.995l-159.675,92.064
				c-9.528,5.497-25.174,5.497-34.702,0L79.419,377.491C69.891,371.994,62,358.496,62,347.496V163.388z"/>
		</g>
	</g>
</g>
<g id="Layer_4">
	<g>
		<path style="fill:#FFFFFF;" d="M239.193,99.675h40.306l115.694,275.801h-56.354l-29.483-71.283h-98.154L180.6,375.476h-56.355
			L239.193,99.675z M288.829,255.303l-29.483-83.599l-29.484,83.599H288.829z"/>
	</g>
</g>
</svg>
